<?xml version="1.0" standalone="no"?>
<!DOCTYPE svg PUBLIC "-//W3C//DTD SVG 20010904//EN"
 "http://www.w3.org/TR/2001/REC-SVG-20010904/DTD/svg10.dtd">
<svg version="1.0" xmlns="http://www.w3.org/2000/svg"
 width="920.000000pt" height="785.000000pt" viewBox="0 0 920.000000 785.000000"
 preserveAspectRatio="xMidYMid meet">

<g transform="translate(0.000000,785.000000) scale(0.100000,-0.100000)"
fill="#000000" stroke="none">
<path d="M4373 7800 c-1155 -112 -2119 -853 -2524 -1939 -210 -563 -237 -1217
-74 -1812 106 -387 294 -751 553 -1076 105 -131 304 -331 430 -432 50 -41 92
-78 92 -81 0 -3 -42 -14 -92 -24 -51 -9 -208 -42 -348 -72 -860 -186 -1395
-364 -1961 -650 -250 -127 -243 -120 -135 -129 120 -10 210 -1 421 45 246 53
425 74 425 51 0 -6 -51 -48 -112 -94 -62 -46 -140 -108 -172 -138 -115 -105
-217 -252 -271 -389 l-24 -61 32 19 c257 155 588 306 922 422 737 255 1706
408 2684 425 157 3 433 10 613 17 998 35 1847 -76 2619 -341 355 -122 740
-303 951 -449 26 -18 48 -32 51 -32 4 0 -44 266 -66 360 -31 130 -79 206 -165
261 -47 30 -45 36 24 66 32 14 85 18 299 23 287 7 334 16 438 82 l48 31 -37
25 c-69 46 -258 130 -424 187 -410 140 -1002 277 -1725 398 -170 29 -312 55
-315 58 -3 2 34 39 81 82 179 158 356 366 499 583 573 873 644 1985 186 2921
-443 904 -1283 1511 -2280 1648 -133 19 -514 27 -643 15z m682 -149 c468 -72
887 -249 1273 -538 132 -98 411 -371 516 -503 559 -704 762 -1614 552 -2465
-116 -465 -318 -859 -639 -1241 -73 -87 -289 -302 -332 -330 -25 -16 -74 -6
-511 100 -170 41 -371 87 -447 102 l-138 27 3 35 c3 35 4 36 108 77 284 112
513 266 730 492 296 307 476 696 530 1143 13 110 13 404 -1 528 -41 385 -173
732 -396 1045 -73 102 -272 304 -381 386 -292 220 -629 354 -1007 401 -115 15
-404 15 -520 0 -637 -79 -1181 -412 -1517 -930 -382 -588 -442 -1406 -149
-2025 125 -264 298 -489 509 -666 267 -223 554 -371 876 -454 135 -34 201 -44
576 -85 857 -92 1181 -137 1515 -210 149 -32 520 -111 825 -175 989 -206 1462
-316 1720 -397 94 -30 105 -36 108 -58 5 -53 4 -53 -285 -61 -330 -9 -394 -22
-511 -102 l-44 -29 44 -26 c107 -63 198 -152 241 -237 23 -46 40 -149 33 -198
l-7 -44 -82 54 c-451 298 -1075 516 -1797 627 -410 63 -716 87 -1340 101 -673
17 -1207 125 -1746 355 -335 144 -515 269 -784 546 -466 481 -748 1063 -811
1673 -15 143 -6 490 15 624 83 518 283 973 606 1377 110 137 338 365 470 469
418 331 922 549 1420 615 180 24 182 24 420 21 162 -3 261 -9 355 -24z m-70
-840 c306 -57 598 -185 842 -367 98 -74 277 -246 356 -344 287 -356 447 -806
447 -1260 0 -454 -160 -904 -447 -1260 -79 -98 -258 -270 -356 -344 -245 -182
-538 -310 -842 -367 -141 -27 -420 -36 -565 -20 -439 50 -839 235 -1159 537
-237 222 -424 516 -526 827 -136 414 -136 840 0 1254 238 721 871 1251 1625
1357 153 22 478 15 625 -13z m-1850 -4466 c329 -134 719 -253 968 -296 l67
-11 0 -39 c0 -28 -4 -39 -15 -39 -38 0 -783 -63 -960 -81 -896 -91 -1573 -268
-2094 -545 l-104 -56 -25 25 -25 26 69 82 c86 102 195 189 321 259 112 61 175
101 170 107 -5 4 -297 -22 -462 -42 -66 -8 -159 -16 -207 -19 l-86 -4 -7 35
c-3 19 -5 36 -3 38 8 8 199 88 328 138 185 71 323 116 535 176 165 47 281 75
915 221 168 39 328 77 355 84 28 8 55 15 62 15 7 1 96 -33 198 -74z"/>
<path d="M4088 6036 l-3 -96 -75 86 -75 87 -3 -102 -3 -101 -105 92 c-58 51
-109 94 -114 96 -5 2 -7 -40 -5 -93 l5 -96 -48 33 c-26 17 -86 60 -134 95
l-87 63 -3 -85 -3 -84 -94 60 c-73 45 -104 59 -133 59 l-38 0 0 -997 0 -998
556 -385 c306 -212 563 -390 571 -396 12 -8 -29 -35 -195 -129 -116 -66 -209
-122 -206 -126 2 -4 23 -14 47 -22 43 -14 44 -14 101 19 125 74 513 288 717
396 l216 115 7 -76 c3 -42 11 -111 18 -153 l11 -78 42 0 41 0 12 101 c19 163
85 329 137 349 21 8 900 157 1037 176 43 6 50 10 72 50 21 38 22 44 8 44 -9 0
-141 -20 -292 -44 -151 -25 -276 -44 -277 -42 -2 1 62 47 142 101 l145 99 0
997 0 997 -45 -3 c-35 -2 -65 -15 -140 -64 -53 -33 -97 -61 -98 -61 -1 0 -1
41 1 91 3 74 1 90 -10 83 -7 -4 -68 -47 -135 -96 l-122 -87 -3 96 -3 96 -105
-92 -105 -91 -3 100 -3 100 -82 -92 -82 -92 -5 92 -5 91 -259 -350 c-142 -193
-260 -349 -261 -347 -2 2 -120 162 -264 356 l-260 353 -3 -95z m-136 -369
c241 -170 440 -312 443 -317 24 -38 -79 20 -446 254 -234 149 -433 277 -443
285 -20 17 -24 107 -3 95 6 -4 209 -147 449 -317z m1788 270 l0 -54 -435 -276
c-283 -181 -440 -275 -450 -271 -9 4 -15 10 -13 15 2 4 161 119 353 255 193
136 393 278 445 315 52 38 96 68 98 69 1 0 2 -24 2 -53z m-1947 -302 l547
-340 0 -993 0 -993 -91 63 c-50 35 -299 207 -553 384 l-461 321 -3 952 c-1
528 2 951 6 949 5 -1 255 -156 555 -343z m295 61 c155 -136 282 -249 282 -251
0 -2 -137 93 -305 212 l-305 215 0 56 0 55 23 -20 c12 -11 149 -131 305 -267z
m1379 179 c-3 -6 -128 -99 -279 -205 -150 -106 -289 -205 -308 -219 -60 -43
-28 -14 283 260 l302 265 3 -44 c2 -25 1 -50 -1 -57z m551 -847 l-3 -952 -179
-123 -179 -124 -236 -41 c-270 -47 -247 -35 -315 -170 l-43 -88 5 69 5 70 -84
-44 c-46 -25 -87 -45 -91 -45 -5 0 -8 383 -8 850 l0 851 63 40 c222 141 1053
657 1060 658 4 1 6 -427 5 -951z m-1862 752 c76 -85 172 -193 214 -239 67 -76
50 -63 -157 120 l-233 204 0 55 c0 53 0 54 19 35 10 -11 81 -90 157 -175z
m1094 136 l0 -54 -202 -179 c-243 -214 -271 -237 -193 -152 105 112 380 421
383 430 8 21 12 6 12 -45z m-944 -169 c250 -338 249 -332 11 -65 -161 180
-167 188 -167 229 0 24 4 39 9 34 4 -6 71 -95 147 -198z m784 165 c0 -39 -20
-64 -293 -362 l-69 -75 89 120 c49 66 128 173 176 238 48 64 89 117 92 117 3
0 5 -17 5 -38z m-347 -588 c74 -25 74 -26 22 -40 -85 -23 -325 -12 -325 15 0
8 79 37 120 45 39 7 136 -3 183 -20z m-263 -101 c61 -19 231 -18 295 2 28 8
51 15 53 15 1 0 2 -382 2 -850 l0 -850 -67 -34 c-38 -18 -134 -70 -215 -114
l-148 -80 0 970 c0 920 1 970 18 963 9 -4 37 -14 62 -22z"/>
<path d="M7494 3941 l-11 -39 121 -11 c230 -23 732 -102 814 -129 21 -7 -14
-39 -325 -298 -531 -444 -818 -670 -1093 -859 -84 -59 -109 -81 -95 -83 11 -2
37 -7 58 -12 36 -8 42 -5 170 87 189 137 396 295 597 458 239 194 884 734 888
744 3 8 -401 90 -599 121 -125 20 -455 60 -494 60 -16 0 -23 -10 -31 -39z"/>
<path d="M7935 3673 c-453 -139 -574 -177 -601 -188 -20 -8 -41 -30 -57 -59
-14 -25 -24 -46 -23 -46 2 0 82 33 179 74 157 67 505 207 582 234 58 20 -1 10
-80 -15z"/>
<path d="M3890 1820 c-63 -4 -138 -8 -165 -9 -44 -1 -72 -13 -205 -87 -318
-177 -959 -554 -1402 -826 -97 -59 -181 -108 -186 -108 -14 0 -52 120 -58 186
-6 58 12 234 24 234 3 0 13 -7 23 -16 10 -9 36 -18 58 -21 l41 -6 1 44 1 44
17 -65 c21 -82 36 -109 84 -150 31 -27 37 -29 37 -14 0 49 41 370 59 463 11
58 19 106 17 109 -2 2 -22 -2 -44 -7 l-40 -11 -17 -98 c-26 -156 -33 -170 -34
-70 l-1 87 -34 7 c-19 3 -39 3 -44 0 -8 -5 -41 -89 -69 -176 -3 -8 -16 15 -30
53 -14 37 -29 67 -32 67 -10 0 -67 -184 -86 -275 -28 -132 -10 -307 39 -404
l16 -30 -213 -132 c-407 -253 -688 -432 -684 -435 8 -8 677 280 818 352 l157
80 68 -69 c66 -67 163 -145 267 -216 l49 -33 29 28 c22 21 26 31 18 41 -16 19
-5 16 49 -11 26 -13 124 -56 217 -96 94 -40 173 -74 177 -77 4 -2 16 14 27 36
l20 39 -97 55 c-135 77 -240 147 -285 192 -21 20 -36 39 -34 41 2 2 35 -7 74
-20 124 -42 323 -90 333 -80 5 5 12 24 16 41 l6 31 -88 27 c-100 30 -227 86
-239 104 -4 7 11 3 33 -8 51 -26 155 -54 298 -81 l111 -20 239 94 c132 51 403
155 604 231 823 309 1220 466 1550 612 156 69 545 260 624 306 l60 35 -68 7
-68 8 -257 -126 c-425 -209 -757 -345 -1691 -697 -294 -111 -638 -242 -765
-292 -261 -101 -237 -98 -442 -52 -134 30 -220 71 -271 129 -22 25 -42 45 -44
45 -3 0 -10 -18 -17 -41 -14 -46 -17 -105 -7 -137 6 -19 -1 -17 -65 18 -39 22
-74 40 -76 40 -7 0 9 -74 29 -126 10 -29 32 -70 48 -93 17 -23 27 -41 24 -41
-4 0 -31 14 -61 31 -34 19 -78 59 -116 104 -34 40 -63 72 -64 72 0 -1 5 -36
13 -77 8 -41 13 -77 12 -82 -2 -4 -39 26 -83 66 -53 49 -77 77 -70 84 6 5 127
71 270 147 371 196 1877 1016 1894 1031 6 6 -164 2 -299 -6z"/>
</g>
</svg>
